# xmcd
#
# Track frame offsets:
#	182
#	12780
#	26575
#	41505
#	58212
#	71630
#	84692
#	100532
#	109535
#	117462
#	128637
#	141360
#	158102
#	169972
#	188180
#
# Disc length: 2681 seconds
#
# Revision: 0
# Processed by: cddbd v1.5.2PL0 Copyright (c) Steve Scherf et al.
# Submitted via: FairStars CD Ripper 1.60
#
DISCID=ca0a770f
DTITLE=Andy Williams - The very best of Andy
DYEAR=1978
DGENRE=Oldies
TTITLE0=Moon River
TTITLE1=Never on Sunday
TTITLE2=The Exodus Song
TTITLE3=Maria
TTITLE4=Three coins in the fountain
TTITLE5=May each day
TTITLE6=My coloring book
TTITLE7=Exactly like you
TTITLE8=When you're smiling
TTITLE9=You are my sunshine
TTITLE10=A man and a woman
TTITLE11=My way
TTITLE12=The summer of our love
TTITLE13=Little green apples
TTITLE14=Alfie
EXTD=
EXTT0=
EXTT1=
EXTT2=
EXTT3=
EXTT4=
EXTT5=
EXTT6=
EXTT7=
EXTT8=
EXTT9=
EXTT10=
EXTT11=
EXTT12=
EXTT13=
EXTT14=
PLAYORDER=
